<?xml version="1.0" encoding="utf-8"?>
<!-- Generator: Adobe Illustrator 27.2.0, SVG Export Plug-In . SVG Version: 6.00 Build 0)  -->
<svg version="1.1" id="Capa_1" xmlns="http://www.w3.org/2000/svg" xmlns:xlink="http://www.w3.org/1999/xlink" x="0px" y="0px"
	 viewBox="0 0 40.4 40.4" style="enable-background:new 0 0 40.4 40.4;" xml:space="preserve">
<path d="M20.2,0C9,0,0,9,0,20.2s9,20.2,20.2,20.2s20.2-9,20.2-20.2S31.3,0,20.2,0z M20.2,37.6c-9.6,0-17.4-7.8-17.4-17.4
	S10.6,2.8,20.2,2.8s17.4,7.8,17.4,17.4S29.8,37.6,20.2,37.6C20.2,37.6,20.2,37.6,20.2,37.6z"/>
<path d="M24.8,11.5c-3.1,0-6.1,0-9.2,0c-0.5,0-0.9,0.1-1.4,0.2c-1.7,0.6-2.7,2-2.7,3.9c0,3.1,0,6.1,0,9.2c0,0.5,0,1,0.2,1.4
	c0.6,1.7,2,2.7,3.8,2.7c3.1,0,6.2,0,9.3,0c1.4,0,2.5-0.6,3.3-1.7c0.5-0.7,0.7-1.5,0.7-2.4c0-1.5,0-3.1,0-4.6c0-1.5,0-3,0-4.6
	c0-0.5,0-1-0.2-1.4C28.1,12.5,26.6,11.5,24.8,11.5z M20.2,25.6c-3,0-5.5-2.5-5.4-5.5c0-3,2.5-5.4,5.4-5.4c3,0,5.5,2.5,5.5,5.5
	S23.2,25.7,20.2,25.6z M25.8,15.9c-0.7,0-1.3-0.7-1.3-1.4c0-0.8,0.7-1.4,1.4-1.4h0c0.8,0,1.4,0.7,1.3,1.4
	C27.2,15.3,26.6,15.9,25.8,15.9z"/>
<path d="M20.2,16.6c-2,0-3.6,1.6-3.6,3.6c0,2,1.6,3.6,3.6,3.6c2,0,3.6-1.6,3.6-3.6C23.8,18.2,22.2,16.6,20.2,16.6z"/>
<path d="M20.2,5.4C12,5.4,5.4,12,5.4,20.2S12,35,20.2,35S35,28.4,35,20.2S28.4,5.4,20.2,5.4z M29.7,28.2c-1.2,1.7-2.9,2.5-4.9,2.5
	c-3.1,0-6.2,0-9.2,0c-0.4,0-0.8,0-1.2-0.1c-2.4-0.5-3.9-2-4.6-4.3c-0.1-0.3-0.1-0.6-0.2-1v0c0-3.4,0-6.9,0-10.3
	c0-0.2,0.1-0.4,0.1-0.6c0.5-2.4,2-3.9,4.4-4.6c0.3-0.1,0.6-0.1,0.9-0.2c3.4,0,6.9,0,10.3,0c0.1,0,0.1,0,0.2,0
	c0.6,0.1,1.1,0.2,1.7,0.4c2.3,1.1,3.5,2.9,3.5,5.4c0,3.1,0,6.3,0,9.4C30.8,26.1,30.4,27.3,29.7,28.2z"/>
</svg>
