<?xml version="1.0" encoding="utf-8"?>
<!-- Generator: Adobe Illustrator 27.2.0, SVG Export Plug-In . SVG Version: 6.00 Build 0)  -->
<svg version="1.1" id="Capa_1" xmlns="http://www.w3.org/2000/svg" xmlns:xlink="http://www.w3.org/1999/xlink" x="0px" y="0px"
	 viewBox="0 0 40.4 40.4" style="enable-background:new 0 0 40.4 40.4;" xml:space="preserve">
<path d="M20.2,0C9,0,0,9,0,20.2s9,20.2,20.2,20.2s20.2-9,20.2-20.2S31.3,0,20.2,0z M20.2,37.6c-9.6,0-17.4-7.8-17.4-17.4
	S10.6,2.8,20.2,2.8s17.4,7.8,17.4,17.4S29.8,37.6,20.2,37.6C20.2,37.6,20.2,37.6,20.2,37.6z"/>
<path d="M11.1,14.3L11.1,14.3v11.9c1.5-2,3-4,4.5-5.9C14.1,18.2,12.6,16.2,11.1,14.3z"/>
<path d="M23.1,22.3c-0.2,0.3-0.5,0.6-0.8,0.8c-1.6,1.3-3.6,1-4.9-0.7c-0.2-0.3-0.4-0.6-0.6-0.9c-1.6,2-3.1,4-4.6,6h16.1
	c-1.5-2-3-4-4.6-6C23.5,21.8,23.3,22,23.1,22.3z"/>
<path d="M18.3,21c0.2,0.3,0.4,0.5,0.7,0.7c1.2,0.8,2.5,0.2,3.2-0.7c2-2.6,4-5.2,6-7.8c0.1-0.1,0.1-0.1,0.2-0.2h0H12.1
	c0,0.1,0.1,0.1,0.1,0.1C14.2,15.7,16.2,18.3,18.3,21z"/>
<path d="M20.2,5.4C12,5.4,5.4,12,5.4,20.2S12,35,20.2,35S35,28.4,35,20.2S28.4,5.4,20.2,5.4z M28.6,29.4c-2.8,0-5.6,0-8.4,0
	c-2.8,0-5.5,0-8.3,0c-1.4,0-2.3-1.2-2.3-3c0-4.1,0-8.3,0-12.5c0-1.8,0.9-3,2.3-3c5.1,0,10.2,0,15.4,0c0.5,0,0.9,0,1.4,0
	c1.1,0,2.1,1.2,2.1,2.7c0,4.3,0,8.7,0,13C30.8,28.2,29.8,29.4,28.6,29.4z"/>
<path d="M29.3,26.1V14.3v0c-1.5,2-3,4-4.5,5.9C26.3,22.2,27.8,24.2,29.3,26.1z"/>
</svg>
