<?xml version="1.0" encoding="utf-8"?>
<!-- Generator: Adobe Illustrator 27.2.0, SVG Export Plug-In . SVG Version: 6.00 Build 0)  -->
<svg version="1.1" id="visual" xmlns="http://www.w3.org/2000/svg" xmlns:xlink="http://www.w3.org/1999/xlink" x="0px" y="0px"
	 viewBox="0 0 1201.1 141.8" style="enable-background:new 0 0 1201.1 141.8;" xml:space="preserve">
<style type="text/css">
	.st0{fill:#FFE8F3;}
	.st1{fill:#F9C3DD;}
	.st2{fill:#F19EC5;}
	.st3{fill:#E977AC;}
</style>
<path class="st0" d="M0,10.8l20,0.5c20,0.5,60.1,1.5,100.1,7.8c40,6.4,80.1,18,120.1,18s80.1-11.6,120.1-13
	c40-1.3,80.1,7.7,120.1,5.9c40-1.9,80.1-14.5,120.1-19.2s80.1-1.3,120.1-0.3s80.1-0.4,120.1,1.8s80.1,7.8,120.1,11.3
	s80.1,4.9,120.1,6.5c40,1.7,80.1,3.7,100.1,4.7l20,1v107h-20c-20,0-60.1,0-100.1,0s-80.1,0-120.1,0s-80.1,0-120.1,0s-80.1,0-120.1,0
	s-80.1,0-120.1,0s-80.1,0-120.1,0s-80.1,0-120.1,0s-80.1,0-120.1,0s-80.1,0-120.1,0s-80.1,0-100.1,0H0V10.8z"/>
<path class="st1" d="M0,51.8l20,1.5c20,1.5,60.1,4.5,100.1,7.7c40,3.1,80.1,6.5,120.1,8s80.1,1.1,120.1-1.2s80.1-6.7,120.1-7.3
	c40-0.7,80.1,2.3,120.1,2.5c40,0.1,80.1-2.5,120.1-5.9c40-3.3,80.1-7.3,120.1-11.3s80.1-8,120.1-9.3c40-1.4,80.1,0,120.1,5.1
	c40,5.2,80.1,14.2,100.1,18.7l20,4.5v78h-20c-20,0-60.1,0-100.1,0s-80.1,0-120.1,0s-80.1,0-120.1,0s-80.1,0-120.1,0s-80.1,0-120.1,0
	s-80.1,0-120.1,0s-80.1,0-120.1,0s-80.1,0-120.1,0s-80.1,0-120.1,0s-80.1,0-100.1,0H0V51.8z"/>
<path class="st2" d="M0,98.8l20-0.5c20-0.5,60.1-1.5,100.1-7.5s80.1-17,120.1-19.5s80.1,3.5,120.1,9.3c40,5.9,80.1,11.5,120.1,13.9
	c40,2.3,80.1,1.3,120.1-4.4c40-5.6,80.1-16,120.1-18.1c40-2.2,80.1,3.8,120.1,8.5c40,4.6,80.1,8,120.1,8.1
	c40,0.2,80.1-2.8,120.1-4.5c40-1.6,80.1-2,100.1-2.1l20-0.2v61h-20c-20,0-60.1,0-100.1,0s-80.1,0-120.1,0s-80.1,0-120.1,0
	s-80.1,0-120.1,0s-80.1,0-120.1,0s-80.1,0-120.1,0s-80.1,0-120.1,0s-80.1,0-120.1,0s-80.1,0-120.1,0s-80.1,0-100.1,0H0V98.8z"/>
<path class="st3" d="M0,107.8h20c20,0,60.1,0,100.1,2.3c40,2.4,80.1,7,120.1,9.7s80.1,3.3,120.1,0.8s80.1-8.1,120.1-10.6
	s80.1-1.9,120.1-0.9s80.1,2.4,120.1,1.4s80.1-4.4,120.1-6.4s80.1-2.6,120.1-1.3s80.1,4.7,120.1,3.7s80.1-6.4,100.1-9l20-2.7v48h-20
	c-20,0-60.1,0-100.1,0s-80.1,0-120.1,0s-80.1,0-120.1,0s-80.1,0-120.1,0s-80.1,0-120.1,0s-80.1,0-120.1,0s-80.1,0-120.1,0
	s-80.1,0-120.1,0s-80.1,0-120.1,0s-80.1,0-100.1,0H0V107.8z"/>
</svg>
