<?xml version="1.0" encoding="UTF-8"?><svg id="visual" xmlns="http://www.w3.org/2000/svg" viewBox="0 0 1201.1 142.8"><defs><style>.cls-1{fill:#f9c3dd;}.cls-2{fill:#f19ec5;}.cls-3{fill:#e977ac;}.cls-4{fill:#fff;}.cls-5{fill:#ffe8f3;}</style></defs><rect class="cls-4" y="1" width="1201.1" height="141.8"/><path class="cls-5" d="m1201.1,132l-20-.5c-20-.5-60.1-1.5-100.1-7.8-40-6.4-80.1-18-120.1-18s-80.1,11.6-120.1,13c-40,1.3-80.1-7.7-120.1-5.9-40,1.9-80.1,14.5-120.1,19.2s-80.1,1.3-120.1.3-80.1.4-120.1-1.8-80.1-7.8-120.1-11.3-80.1-4.9-120.1-6.5c-40-1.7-80.1-3.7-100.1-4.7L.1,107V0h1201v132Z"/><path class="cls-1" d="m1201.1,91l-20-1.5c-20-1.5-60.1-4.5-100.1-7.7-40-3.1-80.1-6.5-120.1-8-40-1.5-80.1-1.1-120.1,1.2s-80.1,6.7-120.1,7.3c-40,.7-80.1-2.3-120.1-2.5-40-.1-80.1,2.5-120.1,5.9-40,3.3-80.1,7.3-120.1,11.3s-80.1,8-120.1,9.3c-40,1.4-80.1,0-120.1-5.1-40-5.2-80.1-14.2-100.1-18.7L.1,78V0h1201v91Z"/><path class="cls-2" d="m1201.1,44l-20,.5c-20,.5-60.1,1.5-100.1,7.5-40,6-80.1,17-120.1,19.5-40,2.5-80.1-3.5-120.1-9.3-40-5.9-80.1-11.5-120.1-13.9-40-2.3-80.1-1.3-120.1,4.4-40,5.6-80.1,16-120.1,18.1-40,2.2-80.1-3.8-120.1-8.5-40-4.6-80.1-8-120.1-8.1-40-.2-80.1,2.8-120.1,4.5-40,1.6-80.1,2-100.1,2.1l-20,.2V0h1201v44Z"/><path class="cls-3" d="m1201.1,35h-20c-20,0-60.1,0-100.1-2.3-40-2.4-80.1-7-120.1-9.7-40-2.7-80.1-3.3-120.1-.8s-80.1,8.1-120.1,10.6c-40,2.5-80.1,1.9-120.1.9s-80.1-2.4-120.1-1.4-80.1,4.4-120.1,6.4-80.1,2.6-120.1,1.3-80.1-4.7-120.1-3.7-80.1,6.4-100.1,9L.1,48V0h1201v35Z"/></svg>