<?xml version="1.0" encoding="UTF-8"?><svg id="Capa_1" xmlns="http://www.w3.org/2000/svg" viewBox="0 0 40.4 40.4"><path d="m20.2,0C9,0,0,9,0,20.2s9,20.2,20.2,20.2,20.2-9,20.2-20.2S31.3,0,20.2,0Zm0,37.6c-9.6,0-17.4-7.8-17.4-17.4S10.6,2.8,20.2,2.8s17.4,7.8,17.4,17.4-7.8,17.4-17.4,17.4h0Z"/><path d="m22.5,12.4c-1.5-.4-3.1-.4-4.6.1-1.4.4-2.5,1.2-3.5,2.3-1.1,1.3-1.8,2.7-1.9,4.4-.2,1.9.3,3.6,1.4,5.1.1.3.1.4.1.7-.3.8-.5,1.5-.8,2.3q.1,0,.2-.1c.8-.2,1.5-.5,2.3-.7.2-.1.3,0,.5.1.3.2.5.3.8.4,1.9.9,3.8,1,5.8.4,1.4-.4,2.6-1.2,3.5-2.3,1.1-1.3,1.8-2.7,1.9-4.4.2-1.8-.2-3.4-1.2-4.9-1-1.7-2.6-2.8-4.5-3.4Zm.9,12.3h-.3c-.6,0-1.1-.2-1.7-.3-2.2-.7-3.8-2.1-5-4-.4-.6-.8-1.3-1-2.1-.1-.8,0-1.5.4-2.2.2-.3.5-.6.9-.7.2,0,.5-.1.7-.1.3,0,.6.1.7.4.3.7.6,1.4.9,2.1.1.3,0,.6-.2.8-.1.2-.3.4-.5.6q-.1.1,0,.2c.8,1.1,1.7,2,2.9,2.5q.4.2.6-.1c.2-.2.4-.4.5-.7.2-.3.4-.3.8-.2.2.1.4.2.6.3.5.2,1,.5,1.4.7.2.1.3.3.3.5.2,1.4-1,2.2-2,2.3Z"/><path d="m20.2,5.4c-8.2,0-14.8,6.6-14.8,14.8s6.6,14.8,14.8,14.8,14.8-6.6,14.8-14.8-6.6-14.8-14.8-14.8Zm10.1,15.5c-.2,1.8-.8,3.4-1.9,4.8-1.9,2.5-4.4,3.9-7.6,4-1.8.1-3.4-.3-5-1.1-.1-.1-.2-.1-.4,0-1.1.3-2.1.7-3.2,1-.6.2-1.2.4-1.9.6h-.4v-.4c0-.1.1-.1.1-.2.5-1.5,1-3,1.6-4.6.1-.2.1-.4-.1-.6-1-1.8-1.4-3.7-1.2-5.7.2-1.8.8-3.4,1.9-4.9,2.4-3.1,5.5-4.4,9.4-4,2.3.3,4.3,1.3,5.9,3.1,2.2,2.5,3.1,5.1,2.8,8Z"/></svg>